<svg viewBox="0 0 512 512"><defs><radialGradient id="a" cx=".4" cy=".32" r=".6"><stop offset="0%" stop-color="#dab080"/><stop offset="55%" stop-color="#c8956a"/><stop offset="100%" stop-color="#a87848"/></radialGradient><linearGradient id="b" x1=".1" x2=".9" y1=".1" y2=".9"><stop offset="0%" stop-color="#aa8462"/><stop offset="100%" stop-color="#7a5438"/></linearGradient></defs><rect width="512" height="512" fill="#2d2418" rx="115"/><g transform="matrix(3.6 0 0 3.6 256 275)"><ellipse cy="4" fill="url(#a)" rx="33" ry="31"/><ellipse cx="-10" cy="-4" fill="#fff" opacity=".04" rx="8" ry="11" transform="rotate(-10 -10 -4)"/><path fill="url(#b)" d="M-31-15q0-24 31-26 31 2 31 26Q18-7 0-7t-31-8"/><path fill="#7a5438" d="M-3-41q-1.5-9 .5-12.5 2.5-1.5 5 0Q4.5-50 3-41"/><circle cx="-9" cy="4" r="2.7" fill="#4a3018"/><circle cx="9" cy="4" r="2.7" fill="#4a3018"/><circle cx="-10" cy="2.5" r=".9" fill="#fff" opacity=".3"/><circle cx="8" cy="2.5" r=".9" fill="#fff" opacity=".3"/><path fill="none" stroke="#4a3018" stroke-linecap="round" stroke-width="1.8" d="M-7 12q7 6.5 14 0"/><ellipse cx="-16" cy="8.5" fill="#d4907a" opacity=".12" rx="5" ry="2.5"/><ellipse cx="16" cy="8.5" fill="#d4907a" opacity=".12" rx="5" ry="2.5"/></g></svg>