<svg xmlns="http://www.w3.org/2000/svg" width="600" height="160" viewBox="0 0 300 80">
  <defs>
    <radialGradient id="dlc-body" cx="0.40" cy="0.32" r="0.60">
      <stop offset="0%" stop-color="#dab080"/>
      <stop offset="55%" stop-color="#c8956a"/>
      <stop offset="100%" stop-color="#a87848"/>
    </radialGradient>
    <linearGradient id="dlc-cap" x1="0.1" y1="0.1" x2="0.9" y2="0.9">
      <stop offset="0%" stop-color="#aa8462"/>
      <stop offset="100%" stop-color="#7a5438"/>
    </linearGradient>
  </defs>
  <!-- Symbol (NO FACE) -->
  <g transform="translate(36,40)">
    <ellipse cx="0" cy="4" rx="27" ry="25.5" fill="url(#dlc-body)"/>
    <ellipse cx="-8" cy="-4" rx="8" ry="11" fill="white" opacity="0.05" transform="rotate(-10 -8 -4)"/>
    <path d="M-25.5,-13 Q-25.5,-33 0,-35 Q25.5,-33 25.5,-13 Q15,-6 0,-6 Q-15,-6 -25.5,-13Z" fill="url(#dlc-cap)"/>
    <path d="M-19,-19 Q-8,-15.5 0,-15.5 Q8,-15.5 19,-19" stroke="#8a6440" stroke-width="0.45" fill="none" opacity="0.25"/>
    <path d="M-2.5,-35 Q-3.8,-42 -2,-45 Q0,-46.5 2,-45 Q3.8,-42 2.5,-35" fill="#7a5438"/>
  </g>
  <!-- Wordmark -->
  <text x="76" y="35" font-family="'Plus Jakarta Sans','Pretendard',sans-serif" font-weight="800" font-size="30" fill="#2d2418" letter-spacing="-1">dotori</text>
  <text x="78" y="54" font-family="'Pretendard','Noto Sans KR',sans-serif" font-weight="400" font-size="11" fill="#a08060" letter-spacing="1.2">AI 어린이집 입소 전략</text>
</svg>
