<svg viewBox="0 0 270 80"><defs><radialGradient id="a" cx=".4" cy=".32" r=".6"><stop offset="0%" stop-color="#dab080"/><stop offset="55%" stop-color="#c8956a"/><stop offset="100%" stop-color="#a87848"/></radialGradient><linearGradient id="b" x1=".1" x2=".9" y1=".1" y2=".9"><stop offset="0%" stop-color="#aa8462"/><stop offset="100%" stop-color="#7a5438"/></linearGradient></defs><g transform="translate(36 40)"><ellipse cy="4" fill="url(#a)" rx="27" ry="25.5"/><ellipse cx="-8" cy="-4" fill="#fff" opacity=".06" rx="8" ry="11" transform="rotate(-10 -8 -4)"/><path fill="url(#b)" d="M-25.5-13q0-20 25.5-22 25.5 2 25.5 22Q15-6 0-6t-25.5-7"/><path fill="none" stroke="#8a6440" stroke-width=".45" d="M-19-19q11 3.5 19 3.5T19-19" opacity=".25"/><path fill="#7a5438" d="M-2.5-35q-1.3-7 .5-10 2-1.5 4 0 1.8 3 .5 10"/><circle cx="-7.5" cy="5" r="2.2" fill="#4a3018"/><circle cx="7.5" cy="5" r="2.2" fill="#4a3018"/><circle cx="-8.3" cy="3.7" r=".7" fill="#fff" opacity=".45"/><circle cx="6.7" cy="3.7" r=".7" fill="#fff" opacity=".45"/><path fill="none" stroke="#4a3018" stroke-linecap="round" stroke-width="1.5" d="M-5.5 12q5.5 5 11 0"/><ellipse cx="-13" cy="8.5" fill="#d4907a" opacity=".16" rx="4.5" ry="2.2"/><ellipse cx="13" cy="8.5" fill="#d4907a" opacity=".16" rx="4.5" ry="2.2"/></g><text x="76" y="36" fill="#2d2418" font-family="'Pretendard','Noto Sans KR',sans-serif" font-size="28" font-weight="900" letter-spacing="-.5">도토리</text><text x="78" y="54" fill="#a08060" font-family="'Pretendard','Noto Sans KR',sans-serif" font-size="11" font-weight="400" letter-spacing="1.2">AI 어린이집 입소 전략</text></svg>