<svg viewBox="-40 -60 80 100"><defs><radialGradient id="a" cx=".4" cy=".32" r=".6"><stop offset="0%" stop-color="#dab080"/><stop offset="55%" stop-color="#c8956a"/><stop offset="100%" stop-color="#a87848"/></radialGradient><linearGradient id="b" x1=".1" x2=".9" y1=".1" y2=".9"><stop offset="0%" stop-color="#aa8462"/><stop offset="100%" stop-color="#7a5438"/></linearGradient></defs><ellipse cy="6" fill="url(#a)" rx="33" ry="31"/><ellipse cx="-10" cy="-4" fill="#fff" opacity=".06" rx="10" ry="14" transform="rotate(-10 -10 -4)"/><path fill="url(#b)" d="M-31-15q0-24 31-26 31 2 31 26Q18-7 0-7t-31-8"/><path fill="none" stroke="#8a6440" stroke-width=".55" d="M-23-22q13 4 23 4t23-4" opacity=".25"/><path fill="none" stroke="#8a6440" stroke-width=".4" d="M-26-27q14 5 26 5t26-5" opacity=".15"/><path fill="#7a5438" d="M-3-41q-1.5-9 .5-12.5 2.5-1.5 5 0Q4.5-50 3-41"/><path fill="none" stroke="#96704a" stroke-width=".4" d="M-.5-50q.5 3 1 7" opacity=".25"/><circle cx="-9" cy="6" r="2.7" fill="#4a3018"/><circle cx="9" cy="6" r="2.7" fill="#4a3018"/><circle cx="-10" cy="4.5" r=".9" fill="#fff" opacity=".45"/><circle cx="8" cy="4.5" r=".9" fill="#fff" opacity=".45"/><path fill="none" stroke="#4a3018" stroke-linecap="round" stroke-width="1.8" d="M-7 14q7 6.5 14 0"/><ellipse cx="-16" cy="10.5" fill="#d4907a" opacity=".16" rx="5.5" ry="2.8"/><ellipse cx="16" cy="10.5" fill="#d4907a" opacity=".16" rx="5.5" ry="2.8"/></svg>