<svg xmlns="http://www.w3.org/2000/svg" width="512" height="512" viewBox="0 0 512 512">
  <defs>
    <radialGradient id="daid-body" cx="0.40" cy="0.32" r="0.60">
      <stop offset="0%" stop-color="#dab080"/>
      <stop offset="55%" stop-color="#c8956a"/>
      <stop offset="100%" stop-color="#a87848"/>
    </radialGradient>
    <linearGradient id="daid-cap" x1="0.1" y1="0.1" x2="0.9" y2="0.9">
      <stop offset="0%" stop-color="#aa8462"/>
      <stop offset="100%" stop-color="#7a5438"/>
    </linearGradient>
  </defs>
  <!-- Background -->
  <rect width="512" height="512" rx="115" fill="#2d2418"/>
  <!-- Symbol (full color on dark) -->
  <g transform="translate(256,275) scale(3.6)">
    <ellipse cx="0" cy="4" rx="33" ry="31" fill="url(#daid-body)"/>
    <ellipse cx="-10" cy="-4" rx="8" ry="11" fill="white" opacity="0.04" transform="rotate(-10 -10 -4)"/>
    <path d="M-31,-15 Q-31,-39 0,-41 Q31,-39 31,-15 Q18,-7 0,-7 Q-18,-7 -31,-15Z" fill="url(#daid-cap)"/>
    <path d="M-3,-41 Q-4.5,-50 -2.5,-53.5 Q0,-55 2.5,-53.5 Q4.5,-50 3,-41" fill="#7a5438"/>
    <circle cx="-9" cy="4" r="2.7" fill="#4a3018"/>
    <circle cx="9" cy="4" r="2.7" fill="#4a3018"/>
    <circle cx="-10" cy="2.5" r="0.9" fill="white" opacity="0.3"/>
    <circle cx="8" cy="2.5" r="0.9" fill="white" opacity="0.3"/>
    <path d="M-7,12 Q0,18.5 7,12" stroke="#4a3018" stroke-width="1.8" stroke-linecap="round" fill="none"/>
    <ellipse cx="-16" cy="8.5" rx="5" ry="2.5" fill="#d4907a" opacity="0.12"/>
    <ellipse cx="16" cy="8.5" rx="5" ry="2.5" fill="#d4907a" opacity="0.12"/>
  </g>
</svg>
