<svg viewBox="0 0 512 512"><defs><linearGradient id="a" x1="0" x2="1" y1="0" y2="1"><stop offset="0%" stop-color="#e8b878"/><stop offset="100%" stop-color="#b87840"/></linearGradient></defs><rect width="512" height="512" fill="url(#a)" rx="115"/><g transform="matrix(3.6 0 0 3.6 256 275)"><ellipse cy="4" fill="#f5e8d8" rx="33" ry="31"/><path fill="#e8cdb0" d="M-31-15q0-24 31-26 31 2 31 26Q18-7 0-7t-31-8"/><path fill="none" stroke="#d4b898" stroke-width=".6" d="M-23-22q13 4 23 4t23-4" opacity=".3"/><path fill="#e8cdb0" d="M-3-41q-1.5-9 .5-12.5 2.5-1.5 5 0Q4.5-50 3-41"/><circle cx="-9" cy="4" r="2.7" fill="#a07858"/><circle cx="9" cy="4" r="2.7" fill="#a07858"/><circle cx="-10" cy="2.5" r=".8" fill="#fff" opacity=".3"/><circle cx="8" cy="2.5" r=".8" fill="#fff" opacity=".3"/><path fill="none" stroke="#a07858" stroke-linecap="round" stroke-width="1.8" d="M-7 12q7 6.5 14 0"/></g></svg>