<svg viewBox="0 0 240 240"><defs><radialGradient id="a" cx=".4" cy=".32" r=".6"><stop offset="0%" stop-color="#dab080"/><stop offset="55%" stop-color="#c8956a"/><stop offset="100%" stop-color="#a87848"/></radialGradient><linearGradient id="b" x1=".1" x2=".9" y1=".1" y2=".9"><stop offset="0%" stop-color="#aa8462"/><stop offset="100%" stop-color="#7a5438"/></linearGradient></defs><ellipse cx="120" cy="192" fill="#2d2418" opacity=".04" rx="48" ry="6"/><g transform="translate(120 130)"><ellipse cy="6" fill="url(#a)" rx="46" ry="43"/><ellipse cx="-14" cy="-6" fill="#fff" opacity=".06" rx="14" ry="20" transform="rotate(-10 -14 -6)"/><path fill="url(#b)" d="M-43-21q0-35 43-37 43 2 43 37Q25-10 0-10t-43-11"/><path fill="none" stroke="#8a6440" stroke-width=".8" d="M-32-32q18 7 32 7t32-7" opacity=".25"/><path fill="#7a5438" d="M-4-58q-2.5-12 .5-18 3.5-2 7 0 3 6 .5 18"/><circle cx="-12" cy="5" r="4" fill="#4a3018"/><circle cx="12" cy="5" r="4" fill="#4a3018"/><circle cx="-13" cy="3" r="1.4" fill="#fff" opacity=".5"/><circle cx="11" cy="3" r="1.4" fill="#fff" opacity=".5"/><path fill="none" stroke="#4a3018" stroke-linecap="round" stroke-width="1.8" d="M-7 22q3.5-3 7 0t7 0"/><ellipse cx="-22" cy="15" fill="#d4907a" opacity=".2" rx="8" ry="4"/><ellipse cx="22" cy="15" fill="#d4907a" opacity=".2" rx="8" ry="4"/><path fill="#a0c8e0" d="M30-12q2-8 4 0-2 3-4 0" opacity=".4"/></g><text x="176" y="72" fill="#c8956a" font-family="'Plus Jakarta Sans',sans-serif" font-size="36" font-weight="800" opacity=".25">?</text></svg>