<svg viewBox="0 0 240 240"><defs><radialGradient id="a" cx=".4" cy=".32" r=".6"><stop offset="0%" stop-color="#dab080"/><stop offset="55%" stop-color="#c8956a"/><stop offset="100%" stop-color="#a87848"/></radialGradient><linearGradient id="b" x1=".1" x2=".9" y1=".1" y2=".9"><stop offset="0%" stop-color="#aa8462"/><stop offset="100%" stop-color="#7a5438"/></linearGradient></defs><ellipse cx="120" cy="192" fill="#2d2418" opacity=".04" rx="48" ry="6"/><g transform="translate(120 130)"><ellipse cy="6" fill="url(#a)" rx="46" ry="43"/><ellipse cx="-14" cy="-6" fill="#fff" opacity=".06" rx="14" ry="20" transform="rotate(-10 -14 -6)"/><path fill="url(#b)" d="M-43-21q0-35 43-37 43 2 43 37Q25-10 0-10t-43-11"/><path fill="none" stroke="#8a6440" stroke-width=".8" d="M-32-32q18 7 32 7t32-7" opacity=".25"/><path fill="#7a5438" d="M-4-58q-2.5-12 .5-18 3.5-2 7 0 3 6 .5 18"/><path fill="none" stroke="#4a3018" stroke-linecap="round" stroke-width="2.2" d="M-16 8q3.5-4 7 0M9 8q3.5-4 7 0"/><path fill="none" stroke="#4a3018" stroke-linecap="round" stroke-width="1.5" d="M-5 22q5 3 10 0"/><ellipse cx="-22" cy="15" fill="#d4907a" opacity=".12" rx="7.5" ry="3.8"/><ellipse cx="22" cy="15" fill="#d4907a" opacity=".12" rx="7.5" ry="3.8"/></g><text x="168" y="85" fill="#c8956a" font-family="'Plus Jakarta Sans',sans-serif" font-size="12" font-weight="800" opacity=".2">z</text><text x="180" y="72" fill="#c8956a" font-family="'Plus Jakarta Sans',sans-serif" font-size="16" font-weight="800" opacity=".3">z</text><text x="195" y="56" fill="#c8956a" font-family="'Plus Jakarta Sans',sans-serif" font-size="20" font-weight="800" opacity=".4">z</text></svg>