<svg xmlns="http://www.w3.org/2000/svg" width="360" height="80" viewBox="0 0 360 80">
  <!-- Email signature: 이메일 하단 시그니처 블록 -->
  <defs>
    <radialGradient id="des-body" cx="0.40" cy="0.32" r="0.60">
      <stop offset="0%" stop-color="#dab080"/>
      <stop offset="55%" stop-color="#c8956a"/>
      <stop offset="100%" stop-color="#a87848"/>
    </radialGradient>
    <linearGradient id="des-cap" x1="0.1" y1="0.1" x2="0.9" y2="0.9">
      <stop offset="0%" stop-color="#aa8462"/>
      <stop offset="100%" stop-color="#7a5438"/>
    </linearGradient>
  </defs>
  <!-- Divider line -->
  <line x1="0" y1="0" x2="340" y2="0" stroke="#e8d5be" stroke-width="1"/>
  <!-- Symbol (small, corporate) -->
  <g transform="translate(22,42)">
    <ellipse cx="0" cy="2" rx="12" ry="11.3" fill="url(#des-body)"/>
    <path d="M-11.3,-5.5 Q-11.3,-15.5 0,-16.5 Q11.3,-15.5 11.3,-5.5 Q6.5,-2.5 0,-2.5 Q-6.5,-2.5 -11.3,-5.5Z" fill="url(#des-cap)"/>
    <path d="M-1.2,-16.5 Q-1.8,-20 -1,-21 Q0,-22 1,-21 Q1.8,-20 1.2,-16.5" fill="#7a5438"/>
  </g>
  <!-- Text -->
  <text x="44" y="30" font-family="'Plus Jakarta Sans','Pretendard',sans-serif" font-weight="800" font-size="14" fill="#2d2418" letter-spacing="-0.5">dotori</text>
  <text x="105" y="30" font-family="'Pretendard','Noto Sans KR',sans-serif" font-weight="400" font-size="10" fill="#c8956a">|</text>
  <text x="116" y="30" font-family="'Pretendard','Noto Sans KR',sans-serif" font-weight="400" font-size="10" fill="#8a7a6a">AI 어린이집 입소 전략</text>
  <text x="44" y="50" font-family="'Pretendard','Noto Sans KR',sans-serif" font-weight="400" font-size="9" fill="#8a7a6a">www.dotori.app</text>
  <text x="44" y="65" font-family="'Pretendard','Noto Sans KR',sans-serif" font-weight="400" font-size="8" fill="#b0a090">이 메일은 도토리 AI 서비스에서 발송되었습니다</text>
</svg>
