<svg xmlns="http://www.w3.org/2000/svg" width="240" height="300" viewBox="0 0 240 300">
  <defs>
    <radialGradient id="dls-body" cx="0.40" cy="0.32" r="0.60">
      <stop offset="0%" stop-color="#dab080"/>
      <stop offset="55%" stop-color="#c8956a"/>
      <stop offset="100%" stop-color="#a87848"/>
    </radialGradient>
    <linearGradient id="dls-cap" x1="0.1" y1="0.1" x2="0.9" y2="0.9">
      <stop offset="0%" stop-color="#aa8462"/>
      <stop offset="100%" stop-color="#7a5438"/>
    </linearGradient>
  </defs>
  <g transform="translate(120,110)">
    <ellipse cx="0" cy="6" rx="54" ry="51" fill="url(#dls-body)"/>
    <ellipse cx="-16" cy="-6" rx="16" ry="23" fill="white" opacity="0.06" transform="rotate(-10 -16 -6)"/>
    <path d="M-50.5,-24 Q-50.5,-64 0,-67 Q50.5,-64 50.5,-24 Q29,-11 0,-11 Q-29,-11 -50.5,-24Z" fill="url(#dls-cap)"/>
    <path d="M-38,-36 Q-16,-29 0,-29 Q16,-29 38,-36" stroke="#8a6440" stroke-width="0.9" fill="none" opacity="0.25"/>
    <path d="M-42,-44 Q-20,-36 0,-36 Q20,-36 42,-44" stroke="#8a6440" stroke-width="0.65" fill="none" opacity="0.15"/>
    <path d="M-5,-67 Q-7.4,-82 -4,-87 Q0,-90 4,-87 Q7.4,-82 5,-67" fill="#7a5438"/>
    <path d="M-0.8,-82 Q0,-77 0.8,-70" stroke="#96704a" stroke-width="0.65" fill="none" opacity="0.25"/>
    <circle cx="-14.5" cy="6" r="4.4" fill="#4a3018"/>
    <circle cx="14.5" cy="6" r="4.4" fill="#4a3018"/>
    <circle cx="-16" cy="3.5" r="1.5" fill="white" opacity="0.45"/>
    <circle cx="13" cy="3.5" r="1.5" fill="white" opacity="0.45"/>
    <path d="M-11,23 Q0,34 11,23" stroke="#4a3018" stroke-width="2.9" stroke-linecap="round" fill="none"/>
    <ellipse cx="-26" cy="17" rx="9" ry="4.6" fill="#d4907a" opacity="0.16"/>
    <ellipse cx="26" cy="17" rx="9" ry="4.6" fill="#d4907a" opacity="0.16"/>
  </g>
  <text x="120" y="210" text-anchor="middle" font-family="'Plus Jakarta Sans','Pretendard',sans-serif" font-weight="800" font-size="36" fill="#2d2418" letter-spacing="-1.2">dotori</text>
  <text x="120" y="238" text-anchor="middle" font-family="'Pretendard','Noto Sans KR',sans-serif" font-weight="400" font-size="14" fill="#a08060" letter-spacing="1.5">AI 어린이집 입소 전략</text>
</svg>
