<svg xmlns="http://www.w3.org/2000/svg" width="512" height="512" viewBox="0 0 512 512">
  <defs>
    <linearGradient id="dai-bg" x1="0" y1="0" x2="1" y2="1">
      <stop offset="0%" stop-color="#d8ad78"/>
      <stop offset="100%" stop-color="#a87848"/>
    </linearGradient>
  </defs>
  <!-- Background -->
  <rect width="512" height="512" rx="115" fill="url(#dai-bg)"/>
  <!-- Symbol (inverted: cream on gradient) -->
  <g transform="translate(256,275) scale(3.6)">
    <!-- Body -->
    <ellipse cx="0" cy="4" rx="33" ry="31" fill="#f5e8d8"/>
    <!-- Cap -->
    <path d="M-31,-15 Q-31,-39 0,-41 Q31,-39 31,-15 Q18,-7 0,-7 Q-18,-7 -31,-15Z" fill="#e8cdb0"/>
    <!-- Cap texture -->
    <path d="M-23,-22 Q-10,-18 0,-18 Q10,-18 23,-22" stroke="#d4b898" stroke-width="0.6" fill="none" opacity="0.3"/>
    <!-- Stem -->
    <path d="M-3,-41 Q-4.5,-50 -2.5,-53.5 Q0,-55 2.5,-53.5 Q4.5,-50 3,-41" fill="#e8cdb0"/>
    <!-- Eyes -->
    <circle cx="-9" cy="4" r="2.7" fill="#a07858"/>
    <circle cx="9" cy="4" r="2.7" fill="#a07858"/>
    <!-- Eye highlights -->
    <circle cx="-10" cy="2.5" r="0.8" fill="white" opacity="0.3"/>
    <circle cx="8" cy="2.5" r="0.8" fill="white" opacity="0.3"/>
    <!-- Smile -->
    <path d="M-7,12 Q0,18.5 7,12" stroke="#a07858" stroke-width="1.8" stroke-linecap="round" fill="none"/>
  </g>
</svg>
