<svg xmlns="http://www.w3.org/2000/svg" width="512" height="512" viewBox="0 0 512 512">
  <defs>
    <linearGradient id="dais-bg" x1="0" y1="0" x2="1" y2="1">
      <stop offset="0%" stop-color="#e8b878"/>
      <stop offset="100%" stop-color="#b87840"/>
    </linearGradient>
  </defs>
  <!-- Background -->
  <rect width="512" height="512" rx="115" fill="url(#dais-bg)"/>
  <!-- Symbol: 5 layers only — body, cap, stem, eyes, smile -->
  <g transform="translate(256,275) scale(3.7)">
    <!-- Body -->
    <ellipse cx="0" cy="4" rx="33" ry="31" fill="#f5e8d8"/>
    <!-- Cap -->
    <path d="M-31,-15 Q-31,-39 0,-41 Q31,-39 31,-15 Q18,-7 0,-7 Q-18,-7 -31,-15Z" fill="#e8cdb0"/>
    <!-- Stem (simplified straight) -->
    <path d="M-2,-41 Q-3,-48 -1,-51 Q1,-52 3,-51 Q5,-48 4,-41" fill="#e8cdb0"/>
    <!-- Eyes (larger for small render) -->
    <circle cx="-9" cy="4" r="3.5" fill="#a07858"/>
    <circle cx="9" cy="4" r="3.5" fill="#a07858"/>
    <!-- Smile (thicker for small render) -->
    <path d="M-6,13 Q0,20 6,13" stroke="#a07858" stroke-width="2.5" stroke-linecap="round" fill="none"/>
  </g>
</svg>
